<svg width="1000" height="452" viewBox="0 0 1000 452" fill="none" xmlns="http://www.w3.org/2000/svg">
<g clip-path="url(#clip0_11_697)">
<path d="M332.665 252.295H292.266V413.1H332.665V252.295Z" fill="#B5C3C2"/>
<path d="M326.064 240.767H298.867V308.342H326.064V240.767Z" fill="#B5C3C2"/>
<path d="M320.009 233.454H304.923V270.937H320.009V233.454Z" fill="#B5C3C2"/>
<path d="M317.606 252.715H307.325V227.171H311.034H314.709H317.606V252.715Z" fill="#B5C3C2"/>
<path d="M311.788 241.591H310.673V216.047H311.076H311.474H311.788V241.591Z" fill="#B5C3C2"/>
<path d="M314.258 232.761H313.143V207.217H313.545H313.944H314.258V232.761Z" fill="#B5C3C2"/>
<path d="M333.742 251.883H291.188V253.595H333.742V251.883Z" fill="#B5C3C2"/>
<path d="M327.057 239.943H297.875V241.592H327.057V239.943Z" fill="#B5C3C2"/>
<path d="M320.64 232.761H303.823V234.026H320.64V232.761Z" fill="#B5C3C2"/>
<path opacity="0.29" d="M302.632 243.509H301.368V250.59H302.632V243.509Z" fill="#B5C3C2"/>
<path opacity="0.29" d="M306.131 243.509H304.866V250.59H306.131V243.509Z" fill="#B5C3C2"/>
<path opacity="0.29" d="M309.63 243.509H308.365V250.59H309.63V243.509Z" fill="#B5C3C2"/>
<path opacity="0.29" d="M313.128 243.509H311.863V250.59H313.128V243.509Z" fill="#B5C3C2"/>
<path opacity="0.29" d="M316.626 243.509H315.361V250.59H316.626V243.509Z" fill="#B5C3C2"/>
<path opacity="0.29" d="M320.125 243.509H318.86V250.59H320.125V243.509Z" fill="#B5C3C2"/>
<path opacity="0.29" d="M323.623 243.509H322.358V250.59H323.623V243.509Z" fill="#B5C3C2"/>
<path d="M298.867 258.707H295.812V267.108H298.867V258.707Z" fill="#B5C3C2"/>
<path opacity="0.29" d="M304.917 258.707H301.862V267.108H304.917V258.707Z" fill="#B5C3C2"/>
<path d="M310.968 258.707H307.913V267.108H310.968V258.707Z" fill="#B5C3C2"/>
<path d="M317.018 258.707H313.963V267.108H317.018V258.707Z" fill="#B5C3C2"/>
<path d="M323.069 258.707H320.014V267.108H323.069V258.707Z" fill="#B5C3C2"/>
<path d="M329.119 258.707H326.064V267.108H329.119V258.707Z" fill="#B5C3C2"/>
<path d="M298.867 271.801H295.812V280.202H298.867V271.801Z" fill="#B5C3C2"/>
<path d="M304.917 271.801H301.862V280.202H304.917V271.801Z" fill="#B5C3C2"/>
<path d="M310.968 271.801H307.913V280.202H310.968V271.801Z" fill="#B5C3C2"/>
<path opacity="0.29" d="M317.018 271.801H313.963V280.202H317.018V271.801Z" fill="#B5C3C2"/>
<path d="M323.069 271.801H320.014V280.202H323.069V271.801Z" fill="#B5C3C2"/>
<path d="M329.119 271.801H326.064V280.202H329.119V271.801Z" fill="#B5C3C2"/>
<path d="M298.867 284.896H295.812V293.297H298.867V284.896Z" fill="#B5C3C2"/>
<path d="M304.917 284.896H301.862V293.297H304.917V284.896Z" fill="#B5C3C2"/>
<path d="M310.968 284.896H307.913V293.297H310.968V284.896Z" fill="#B5C3C2"/>
<path d="M317.018 284.896H313.963V293.297H317.018V284.896Z" fill="#B5C3C2"/>
<path opacity="0.29" d="M323.069 284.896H320.014V293.297H323.069V284.896Z" fill="#B5C3C2"/>
<path opacity="0.29" d="M329.119 284.896H326.064V293.297H329.119V284.896Z" fill="#B5C3C2"/>
<path opacity="0.29" d="M298.867 297.99H295.812V306.391H298.867V297.99Z" fill="#B5C3C2"/>
<path d="M304.917 297.99H301.862V306.391H304.917V297.99Z" fill="#B5C3C2"/>
<path d="M310.968 297.99H307.913V306.391H310.968V297.99Z" fill="#B5C3C2"/>
<path d="M317.018 297.99H313.963V306.391H317.018V297.99Z" fill="#B5C3C2"/>
<path d="M323.069 297.99H320.014V306.391H323.069V297.99Z" fill="#B5C3C2"/>
<path d="M329.119 297.99H326.064V306.391H329.119V297.99Z" fill="#B5C3C2"/>
<path d="M298.867 311.085H295.812V319.486H298.867V311.085Z" fill="#B5C3C2"/>
<path opacity="0.29" d="M304.917 311.085H301.862V319.486H304.917V311.085Z" fill="#B5C3C2"/>
<path d="M310.968 311.085H307.913V319.486H310.968V311.085Z" fill="#B5C3C2"/>
<path opacity="0.29" d="M317.018 311.085H313.963V319.486H317.018V311.085Z" fill="#B5C3C2"/>
<path d="M323.069 311.085H320.014V319.486H323.069V311.085Z" fill="#B5C3C2"/>
<path d="M329.119 311.085H326.064V319.486H329.119V311.085Z" fill="#B5C3C2"/>
<path d="M298.867 324.18H295.812V332.581H298.867V324.18Z" fill="#B5C3C2"/>
<path d="M304.917 324.18H301.862V332.581H304.917V324.18Z" fill="#B5C3C2"/>
<path d="M310.968 324.18H307.913V332.581H310.968V324.18Z" fill="#B5C3C2"/>
<path d="M317.018 324.18H313.963V332.581H317.018V324.18Z" fill="#B5C3C2"/>
<path d="M323.069 324.18H320.014V332.581H323.069V324.18Z" fill="#B5C3C2"/>
<path opacity="0.29" d="M329.119 324.18H326.064V332.581H329.119V324.18Z" fill="#B5C3C2"/>
<path d="M298.867 337.274H295.812V345.675H298.867V337.274Z" fill="#B5C3C2"/>
<path opacity="0.29" d="M304.917 337.274H301.862V345.675H304.917V337.274Z" fill="#B5C3C2"/>
<path opacity="0.29" d="M310.968 337.274H307.913V345.675H310.968V337.274Z" fill="#B5C3C2"/>
<path d="M317.018 337.274H313.963V345.675H317.018V337.274Z" fill="#B5C3C2"/>
<path d="M323.069 337.274H320.014V345.675H323.069V337.274Z" fill="#B5C3C2"/>
<path d="M329.119 337.274H326.064V345.675H329.119V337.274Z" fill="#B5C3C2"/>
<path d="M298.867 350.369H295.812V358.77H298.867V350.369Z" fill="#B5C3C2"/>
<path d="M304.917 350.369H301.862V358.77H304.917V350.369Z" fill="#B5C3C2"/>
<path d="M310.968 350.369H307.913V358.77H310.968V350.369Z" fill="#B5C3C2"/>
<path d="M317.018 350.369H313.963V358.77H317.018V350.369Z" fill="#B5C3C2"/>
<path opacity="0.29" d="M323.069 350.369H320.014V358.77H323.069V350.369Z" fill="#B5C3C2"/>
<path d="M329.119 350.369H326.064V358.77H329.119V350.369Z" fill="#B5C3C2"/>
<path d="M298.867 363.463H295.812V371.864H298.867V363.463Z" fill="#B5C3C2"/>
<path opacity="0.29" d="M304.917 363.463H301.862V371.864H304.917V363.463Z" fill="#B5C3C2"/>
<path d="M310.968 363.463H307.913V371.864H310.968V363.463Z" fill="#B5C3C2"/>
<path d="M317.018 363.463H313.963V371.864H317.018V363.463Z" fill="#B5C3C2"/>
<path d="M323.069 363.463H320.014V371.864H323.069V363.463Z" fill="#B5C3C2"/>
<path d="M329.119 363.463H326.064V371.864H329.119V363.463Z" fill="#B5C3C2"/>
<path d="M298.867 376.558H295.812V384.959H298.867V376.558Z" fill="#B5C3C2"/>
<path d="M304.917 376.558H301.862V384.959H304.917V376.558Z" fill="#B5C3C2"/>
<path d="M310.968 376.558H307.913V384.959H310.968V376.558Z" fill="#B5C3C2"/>
<path opacity="0.29" d="M317.018 376.558H313.963V384.959H317.018V376.558Z" fill="#B5C3C2"/>
<path d="M323.069 376.558H320.014V384.959H323.069V376.558Z" fill="#B5C3C2"/>
<path opacity="0.29" d="M329.119 376.558H326.064V384.959H329.119V376.558Z" fill="#B5C3C2"/>
<path opacity="0.29" d="M298.867 389.652H295.812V398.053H298.867V389.652Z" fill="#B5C3C2"/>
<path d="M304.917 389.652H301.862V398.053H304.917V389.652Z" fill="#B5C3C2"/>
<path opacity="0.29" d="M310.968 389.652H307.913V398.053H310.968V389.652Z" fill="#B5C3C2"/>
<path d="M317.018 389.652H313.963V398.053H317.018V389.652Z" fill="#B5C3C2"/>
<path d="M323.069 389.652H320.014V398.053H323.069V389.652Z" fill="#B5C3C2"/>
<path d="M329.119 389.652H326.064V398.053H329.119V389.652Z" fill="#B5C3C2"/>
<path d="M239.879 258.412H174.937V393.876H239.879V258.412Z" fill="#B5C3C2"/>
<path d="M241.725 256.082H173.092V259.911H241.725V256.082Z" fill="#B5C3C2"/>
<path d="M237.696 251.182H177.12V269.381H237.696V251.182Z" fill="#B5C3C2"/>
<path d="M205.745 243.735H181.757V263.619H205.745V243.735Z" fill="#B5C3C2"/>
<path d="M195.639 249.339H181.757V238.872H191.713L195.639 249.339Z" fill="#B5C3C2"/>
<path d="M188.698 230.184H187.352V253.499H188.698V230.184Z" fill="#B5C3C2"/>
<path d="M189.233 228.975C189.233 229.642 188.692 230.183 188.024 230.183C187.357 230.183 186.815 229.642 186.815 228.975C186.815 228.308 187.356 227.766 188.024 227.766C188.692 227.767 189.233 228.308 189.233 228.975Z" fill="#B5C3C2"/>
<path d="M777.666 404.188H706.578L697.707 205.019L777.666 221.617V404.188Z" fill="#B5C3C2"/>
<path d="M467.521 290.445V223.858H456.372V206.022H452.389V179.862H430.445V160.637H428.492V179.862H424.193V155.796H422.241V179.862H408.368V223.858H401.202V290.445H395.059V411.728H471.84V290.445H467.521Z" fill="#B5C3C2"/>
<path d="M933.545 401.719H84.175V421.92H933.545V401.719Z" fill="#B5C3C2"/>
<path d="M584.14 416.97H546.529L561.184 341.655H584.14V416.97Z" fill="#95A9A7"/>
<path d="M945.501 419.904H53.701V451.757H945.501V419.904Z" fill="#95A9A7"/>
<path d="M553.317 277.6V244.226H541.241V231.52H534.78V220.846H532.513V202.55H531.927V220.846H529.659V231.52H523.198V244.226H511.214V277.6H508.723V338.192H490.142V407.264H508.723H527.305H555.716V277.6H553.317Z" fill="#95A9A7"/>
<path d="M622.722 315.937H564.268V317H566.913V415.841H620.077V317H622.722V315.937Z" fill="#95A9A7"/>
<path d="M356.172 340.557H304.346V422.893H356.172V340.557Z" fill="#95A9A7"/>
<path d="M296.54 382.741H207.408V422.892H296.54V382.741Z" fill="#95A9A7"/>
<path d="M274.75 293.036H255.183V391.636H274.75V293.036Z" fill="#95A9A7"/>
<path d="M260.519 266.734H259.503V320.354H260.519V266.734Z" fill="#95A9A7"/>
<path d="M263.823 270.8H262.807V324.42H263.823V270.8Z" fill="#95A9A7"/>
<path d="M268.652 286.937H256.692V300.151H268.652V286.937Z" fill="#95A9A7"/>
<path d="M327.099 355.296H293.047V422.892H327.099V355.296Z" fill="#95A9A7"/>
<path d="M428.494 283.762H364.573V422.892H428.494V283.762Z" fill="#95A9A7"/>
<path d="M422.214 278.98H370.853V302.153H422.214V278.98Z" fill="#95A9A7"/>
<path d="M433.449 286.673H359.618V288.3H433.449V286.673Z" fill="#95A9A7"/>
<path d="M383.111 352.628H352.992V422.893H383.111V352.628Z" fill="#95A9A7"/>
<path d="M171.831 349.959H137.27V422.892H171.831V349.959Z" fill="#95A9A7"/>
<path d="M217.319 330.138H148.452V422.893H217.319V330.138Z" fill="#95A9A7"/>
<path d="M219.098 326.58H144.434V330.138H219.098V326.58Z" fill="#95A9A7"/>
<path d="M181.766 316.923H151.501V335.728H181.766V316.923Z" fill="#95A9A7"/>
<path d="M196.734 316.923H191.652V328.359H196.734V316.923Z" fill="#95A9A7"/>
<path d="M207.408 316.923H201.817V328.359H207.408V316.923Z" fill="#95A9A7"/>
<path d="M154.55 394.685H118.465V422.893H154.55V394.685Z" fill="#95A9A7"/>
<path d="M121.922 382.741H104.835V422.892H121.922V382.741Z" fill="#95A9A7"/>
<path d="M113.379 408.789H84.175V422.893H113.379V408.789Z" fill="#95A9A7"/>
<path d="M782.064 391.635H422.215V422.892H782.064V391.635Z" fill="#95A9A7"/>
<path d="M753.33 305.111C751.064 305.111 749.207 306.854 749.022 309.072L743.958 308.907C743.971 308.411 743.979 307.914 743.979 307.416C743.979 301.113 742.891 294.977 740.806 289.222L745.037 287.664C745.702 289.198 747.228 290.271 749.006 290.271C751.394 290.271 753.33 288.335 753.33 285.947C753.33 283.559 751.394 281.623 749.006 281.623C746.618 281.623 744.682 283.559 744.682 285.947C744.682 286.388 744.748 286.813 744.871 287.214L740.641 288.771C738.231 282.306 734.556 276.332 729.741 271.157L733.052 268.055C733.828 268.797 734.879 269.253 736.038 269.253C738.426 269.253 740.362 267.317 740.362 264.929C740.362 262.541 738.426 260.605 736.038 260.605C733.65 260.605 731.714 262.541 731.714 264.929C731.714 265.986 732.094 266.954 732.724 267.706L729.413 270.809C729.072 270.449 728.726 270.092 728.373 269.74C723.36 264.727 717.524 260.836 711.17 258.193L712.991 253.759C713.404 253.89 713.844 253.961 714.3 253.961C716.688 253.961 718.624 252.025 718.624 249.637C718.624 247.249 716.688 245.313 714.3 245.313C711.912 245.313 709.976 247.249 709.976 249.637C709.976 251.399 711.03 252.914 712.542 253.588L710.725 258.012C705.04 255.708 698.948 254.397 692.666 254.17L692.863 248.109C692.909 248.11 692.954 248.112 693 248.112C695.388 248.112 697.324 246.176 697.324 243.788C697.324 241.4 695.388 239.464 693 239.464C690.612 239.464 688.676 241.4 688.676 243.788C688.676 245.967 690.288 247.768 692.384 248.068L692.186 254.155C691.69 254.141 691.193 254.134 690.695 254.134C684.646 254.134 678.752 255.136 673.2 257.059L671.456 252.112C673.029 251.465 674.136 249.918 674.136 248.112C674.136 245.724 672.2 243.788 669.812 243.788C667.424 243.788 665.487 245.724 665.487 248.112C665.487 250.5 667.423 252.436 669.812 252.436C670.225 252.436 670.624 252.377 671.002 252.269L672.746 257.217C666.013 259.619 659.796 263.384 654.435 268.371L651.275 264.999C651.982 264.229 652.414 263.203 652.414 262.075C652.414 259.687 650.478 257.751 648.09 257.751C645.702 257.751 643.765 259.687 643.765 262.075C643.765 264.463 645.701 266.399 648.09 266.399C649.178 266.399 650.171 265.996 650.931 265.333L654.086 268.7C653.726 269.041 653.369 269.387 653.017 269.739C648.558 274.198 644.988 279.308 642.393 284.855L638.374 283C638.519 282.567 638.599 282.104 638.599 281.622C638.599 279.234 636.663 277.298 634.275 277.298C631.887 277.298 629.951 279.234 629.951 281.622C629.951 284.01 631.887 285.946 634.275 285.946C636.011 285.946 637.508 284.922 638.196 283.446L642.188 285.289C639.322 291.563 637.698 298.383 637.443 305.445L632.288 305.277C632.224 302.944 630.315 301.073 627.967 301.073C625.579 301.073 623.643 303.009 623.643 305.397C623.643 307.785 625.579 309.721 627.967 309.721C630.234 309.721 632.092 307.976 632.275 305.757L637.428 305.925C637.414 306.421 637.407 306.918 637.407 307.416C637.407 313.719 638.495 319.855 640.58 325.61L636.349 327.168C635.684 325.634 634.158 324.561 632.38 324.561C629.992 324.561 628.056 326.497 628.056 328.885C628.056 331.273 629.992 333.209 632.38 333.209C634.768 333.209 636.705 331.273 636.705 328.885C636.705 328.444 636.639 328.019 636.516 327.618L640.746 326.06C643.156 332.525 646.831 338.499 651.646 343.674L648.335 346.776C647.559 346.035 646.508 345.578 645.349 345.578C642.961 345.578 641.025 347.514 641.025 349.902C641.025 352.29 642.961 354.226 645.349 354.226C647.737 354.226 649.674 352.29 649.674 349.902C649.674 348.845 649.294 347.877 648.664 347.125L651.975 344.023C652.316 344.383 652.662 344.74 653.014 345.092C656.39 348.468 660.14 351.335 664.17 353.655L638.095 401.716H633.415V403.09H631.123V405.819H750.26V403.09H747.968V401.716H743.288L717.213 353.655C720.687 351.655 723.952 349.249 726.95 346.461L731.175 350.97C730.268 351.763 729.694 352.927 729.694 354.227C729.694 356.615 731.63 358.551 734.018 358.551C736.406 358.551 738.343 356.615 738.343 354.227C738.343 351.839 736.407 349.903 734.018 349.903C733.102 349.903 732.254 350.188 731.555 350.674L727.3 346.133C727.66 345.792 728.017 345.446 728.369 345.094C732.828 340.635 736.398 335.525 738.994 329.978L743.7 332.15C743.615 332.489 743.569 332.844 743.569 333.209C743.569 335.597 745.505 337.533 747.893 337.533C750.281 337.533 752.217 335.597 752.217 333.209C752.217 330.821 750.281 328.885 747.893 328.885C746.04 328.885 744.46 330.05 743.845 331.688L739.197 329.542C742.063 323.268 743.687 316.448 743.942 309.386L749.008 309.551C749.07 311.885 750.98 313.758 753.329 313.758C755.717 313.758 757.654 311.822 757.654 309.434C757.654 307.046 755.718 305.111 753.33 305.111ZM742.537 307.417C742.537 307.899 742.53 308.381 742.517 308.861L727.598 308.376C727.606 308.057 727.61 307.737 727.61 307.417C727.61 303.02 726.836 298.801 725.419 294.887L739.451 289.721C741.479 295.319 742.537 301.286 742.537 307.417ZM726.877 308.353L693.596 307.271C693.585 307.054 693.55 306.843 693.494 306.641L724.742 295.136C726.13 298.972 726.888 303.107 726.888 307.417C726.889 307.73 726.885 308.042 726.877 308.353ZM654.509 306.481L687.79 307.563C687.801 307.78 687.836 307.991 687.892 308.193L656.644 319.698C655.256 315.862 654.498 311.727 654.498 307.417C654.497 307.104 654.501 306.792 654.509 306.481ZM692.971 305.611L717.255 282.856C720.405 286.26 722.91 290.268 724.575 294.686L693.328 306.19C693.232 305.983 693.112 305.789 692.971 305.611ZM692.643 305.26C692.455 305.09 692.244 304.944 692.016 304.828L704.665 274.027C709.327 275.985 713.496 278.892 716.928 282.504L692.643 305.26ZM691.572 304.645C691.397 304.59 691.215 304.551 691.028 304.529L692.11 271.251C696.376 271.416 700.455 272.322 704.221 273.845L691.572 304.645ZM690.547 304.513C690.344 304.523 690.146 304.554 689.956 304.604L678.887 273.199C682.589 271.918 686.561 271.22 690.693 271.22C691.006 271.22 691.318 271.224 691.629 271.232L690.547 304.513ZM689.503 304.764C689.282 304.863 689.075 304.99 688.887 305.139L666.132 280.855C669.657 277.593 673.83 275.022 678.434 273.36L689.503 304.764ZM688.537 305.467C688.394 305.625 688.269 305.799 688.164 305.985L657.936 292.031C659.866 287.939 662.538 284.264 665.782 281.183L688.537 305.467ZM687.961 306.42C687.884 306.63 687.832 306.852 687.805 307.082L654.527 306C654.713 301.191 655.84 296.618 657.732 292.464L687.961 306.42ZM688.057 308.643C688.135 308.81 688.228 308.969 688.336 309.117L688.138 309.482L664.131 331.977C660.981 328.573 658.476 324.565 656.811 320.147L688.057 308.643ZM687.411 310.821L672.339 338.602C669.427 336.882 666.774 334.767 664.458 332.329L687.411 310.821ZM689.05 309.815C689.152 309.885 689.259 309.948 689.37 310.005L676.721 340.806C675.503 340.294 674.319 339.717 673.172 339.08L689.05 309.815ZM689.814 310.189C689.989 310.244 690.171 310.283 690.359 310.305L689.277 343.583C685.011 343.418 680.932 342.512 677.166 340.989L689.814 310.189ZM690.693 343.613C690.38 343.613 690.068 343.609 689.757 343.601L690.839 310.32C691.042 310.31 691.24 310.279 691.43 310.229L702.499 341.634C698.797 342.915 694.825 343.613 690.693 343.613ZM691.883 310.069C692.042 309.997 692.194 309.913 692.336 309.815L708.213 339.08C706.536 340.012 704.778 340.815 702.951 341.474L691.883 310.069ZM694.554 311.889L715.254 333.98C713.361 335.732 711.281 337.284 709.048 338.603L694.554 311.889ZM693.649 310.22L693.051 309.117C693.113 309.031 693.171 308.942 693.223 308.849L723.451 322.803C721.521 326.895 718.848 330.57 715.605 333.651L693.649 310.22ZM693.425 308.414C693.502 308.203 693.554 307.981 693.581 307.752L726.859 308.834C726.673 313.644 725.546 318.216 723.654 322.37L693.425 308.414ZM676.448 341.473L670.766 355.308C669.034 354.587 667.342 353.771 665.695 352.863L672.829 339.714C673.998 340.363 675.205 340.952 676.448 341.473ZM676.892 341.655C680.736 343.21 684.899 344.135 689.254 344.303L688.769 359.225C682.661 359.004 676.739 357.729 671.211 355.489L676.892 341.655ZM689.734 344.321C690.053 344.329 690.372 344.333 690.693 344.333C694.909 344.333 698.961 343.621 702.738 342.313L707.709 356.415C702.309 358.285 696.576 359.259 690.694 359.259C690.211 359.259 689.73 359.252 689.25 359.239L689.734 344.321ZM703.191 342.154C705.053 341.482 706.846 340.663 708.557 339.714L715.691 352.863C713.274 354.197 710.758 355.332 708.162 356.258L703.191 342.154ZM739.286 289.27L725.252 294.437C723.553 289.928 720.996 285.838 717.781 282.364L728.688 272.144C733.369 277.176 736.942 282.984 739.286 289.27ZM727.352 270.758C727.693 271.099 728.028 271.445 728.359 271.794L717.454 282.013C713.951 278.325 709.697 275.359 704.939 273.361L710.62 259.526C716.8 262.097 722.476 265.882 727.352 270.758ZM710.175 259.344L704.493 273.179C700.649 271.624 696.486 270.699 692.132 270.531L692.617 255.608C698.725 255.829 704.647 257.104 710.175 259.344ZM690.693 255.573C691.175 255.573 691.657 255.58 692.137 255.593L691.652 270.512C691.333 270.504 691.014 270.5 690.693 270.5C686.477 270.5 682.425 271.212 678.648 272.52L673.677 258.418C679.077 256.547 684.81 255.573 690.693 255.573ZM673.224 258.576L678.195 272.679C673.496 274.375 669.237 276.999 665.64 280.328L655.42 269.421C660.632 264.573 666.678 260.913 673.224 258.576ZM654.034 270.758C654.375 270.417 654.721 270.082 655.07 269.751L665.289 280.656C661.979 283.8 659.25 287.551 657.281 291.728L643.7 285.459C646.224 280.064 649.697 275.094 654.034 270.758ZM643.498 285.895L657.078 292.164C655.147 296.403 653.997 301.069 653.807 305.978L638.885 305.493C639.133 298.627 640.712 291.995 643.498 285.895ZM638.849 307.417C638.849 306.935 638.856 306.453 638.869 305.973L653.788 306.458C653.78 306.777 653.776 307.096 653.776 307.417C653.776 311.814 654.55 316.033 655.967 319.947L641.935 325.113C639.907 319.515 638.849 313.547 638.849 307.417ZM642.1 325.564L656.134 320.397C657.833 324.906 660.39 328.996 663.605 332.47L652.698 342.69C648.018 337.658 644.444 331.85 642.1 325.564ZM654.034 344.076C653.693 343.735 653.358 343.389 653.027 343.041L663.932 332.822C666.301 335.316 669.015 337.479 671.995 339.237L664.859 352.391C660.949 350.136 657.311 347.353 654.034 344.076ZM742.197 401.719H639.189L665.007 354.131C666.699 355.064 668.438 355.902 670.218 356.643L668.397 361.077C667.984 360.946 667.544 360.875 667.087 360.875C664.699 360.875 662.763 362.811 662.763 365.199C662.763 367.587 664.699 369.523 667.087 369.523C669.475 369.523 671.412 367.587 671.412 365.199C671.412 363.437 670.358 361.922 668.846 361.248L670.663 356.824C676.348 359.128 682.44 360.439 688.722 360.666L688.575 365.201C686.233 365.254 684.351 367.168 684.351 369.523C684.351 371.911 686.287 373.847 688.676 373.847C691.065 373.847 693 371.911 693 369.523C693 367.263 691.266 365.409 689.056 365.216L689.203 360.681C689.699 360.695 690.196 360.702 690.694 360.702C696.743 360.702 702.637 359.7 708.189 357.777L709.743 362.186C708.272 362.876 707.252 364.37 707.252 366.103C707.252 368.491 709.188 370.427 711.576 370.427C713.964 370.427 715.9 368.491 715.9 366.103C715.9 363.715 713.964 361.779 711.576 361.779C711.091 361.779 710.624 361.86 710.189 362.008L708.642 357.619C711.309 356.667 713.895 355.502 716.379 354.132L742.197 401.719ZM716.528 352.39L709.392 339.236C711.679 337.887 713.809 336.298 715.747 334.505L725.967 345.412C723.06 348.115 719.894 350.449 716.528 352.39ZM727.352 344.076C727.011 344.417 726.665 344.752 726.316 345.083L716.097 334.178C719.407 331.034 722.135 327.283 724.104 323.106L737.685 329.375C735.162 334.769 731.689 339.739 727.352 344.076ZM737.888 328.939L724.308 322.67C726.239 318.431 727.389 313.764 727.579 308.856L742.501 309.341C742.253 316.207 740.674 322.839 737.888 328.939Z" fill="#95A9A7"/>
<path d="M819.335 341.475H763.767V422.893H819.335V341.475Z" fill="#95A9A7"/>
<path d="M866.771 373.129H811.203V422.433H866.771V373.129Z" fill="#95A9A7"/>
<path d="M626.879 365.889H595.707V407.264H626.879V365.889Z" fill="#95A9A7"/>
<path d="M830.855 264.046H791.551V422.892H830.855V264.046Z" fill="#95A9A7"/>
<path d="M895.572 422.892H843.731V330.138H883.035L895.572 422.892Z" fill="#95A9A7"/>
<path d="M918.273 401.719H872.87V422.893H918.273V401.719Z" fill="#95A9A7"/>
<path d="M822.045 230.861H820.69V274.027H822.045V230.861Z" fill="#95A9A7"/>
<path d="M826.62 240.124H825.265V283.29H826.62V240.124Z" fill="#95A9A7"/>
<path d="M817.895 246.083H816.54V289.249H817.895V246.083Z" fill="#95A9A7"/>
<path d="M864.315 322.641H845.764V337.253H864.315V322.641Z" fill="#95A9A7"/>
<path d="M862.282 317.432H847.797V325.645H862.282V317.432Z" fill="#95A9A7"/>
<path d="M875.242 326.921H871.684V332.821H875.242V326.921Z" fill="#95A9A7"/>
<path d="M881.583 321.538H876.501V332.821H881.583V321.538Z" fill="#95A9A7"/>
<path d="M642.669 299.878H595.55V451.757H642.669V299.878Z" fill="#658280"/>
<path d="M646.19 300.778H592.03V302.317H646.19V300.778Z" fill="#658280"/>
<path d="M644.724 322.112H593.495V323.646H644.724V322.112Z" fill="#658280"/>
<path d="M644.724 342.773H593.495V344.307H644.724V342.773Z" fill="#658280"/>
<path d="M644.724 363.434H593.495V364.968H644.724V363.434Z" fill="#658280"/>
<path d="M644.724 384.095H593.495V385.629H644.724V384.095Z" fill="#658280"/>
<path d="M644.724 404.756H593.495V406.29H644.724V404.756Z" fill="#658280"/>
<path d="M644.724 425.417H593.495V426.951H644.724V425.417Z" fill="#658280"/>
<path d="M647.981 296.582H590.239V300.778H647.981V296.582Z" fill="#658280"/>
<path opacity="0.29" d="M604.687 307.306H599.791V319.439H604.687V307.306Z" fill="#658280"/>
<path d="M615.638 307.306H610.742V319.439H615.638V307.306Z" fill="#658280"/>
<path d="M626.589 307.306H621.693V319.439H626.589V307.306Z" fill="#658280"/>
<path d="M637.539 307.306H632.643V319.439H637.539V307.306Z" fill="#658280"/>
<path d="M604.687 327.143H599.791V339.276H604.687V327.143Z" fill="#658280"/>
<path opacity="0.29" d="M615.638 327.143H610.742V339.276H615.638V327.143Z" fill="#658280"/>
<path d="M626.589 327.143H621.693V339.276H626.589V327.143Z" fill="#658280"/>
<path d="M637.539 327.143H632.643V339.276H637.539V327.143Z" fill="#658280"/>
<path d="M604.687 347.804H599.791V359.937H604.687V347.804Z" fill="#658280"/>
<path d="M615.638 347.804H610.742V359.937H615.638V347.804Z" fill="#658280"/>
<path d="M626.589 347.804H621.693V359.937H626.589V347.804Z" fill="#658280"/>
<path opacity="0.29" d="M637.539 347.804H632.643V359.937H637.539V347.804Z" fill="#658280"/>
<path d="M604.687 368.465H599.791V380.598H604.687V368.465Z" fill="#658280"/>
<path opacity="0.29" d="M615.638 368.465H610.742V380.598H615.638V368.465Z" fill="#658280"/>
<path opacity="0.29" d="M626.589 368.465H621.693V380.598H626.589V368.465Z" fill="#658280"/>
<path d="M637.539 368.465H632.643V380.598H637.539V368.465Z" fill="#658280"/>
<path opacity="0.29" d="M604.687 389.126H599.791V401.259H604.687V389.126Z" fill="#658280"/>
<path d="M615.638 389.126H610.742V401.259H615.638V389.126Z" fill="#658280"/>
<path d="M626.589 389.126H621.693V401.259H626.589V389.126Z" fill="#658280"/>
<path d="M637.539 389.126H632.643V401.259H637.539V389.126Z" fill="#658280"/>
<path d="M604.687 409.787H599.791V421.92H604.687V409.787Z" fill="#658280"/>
<path d="M615.638 409.787H610.742V421.92H615.638V409.787Z" fill="#658280"/>
<path opacity="0.29" d="M626.589 409.787H621.693V421.92H626.589V409.787Z" fill="#658280"/>
<path d="M637.539 409.787H632.643V421.92H637.539V409.787Z" fill="#658280"/>
<path d="M604.687 430.448H599.791V442.581H604.687V430.448Z" fill="#658280"/>
<path opacity="0.29" d="M615.638 430.448H610.742V442.581H615.638V430.448Z" fill="#658280"/>
<path d="M626.589 430.448H621.693V442.581H626.589V430.448Z" fill="#658280"/>
<path opacity="0.29" d="M637.539 430.448H632.643V442.581H637.539V430.448Z" fill="#658280"/>
<path d="M614.55 290.792H598.524V298.68H614.55V290.792Z" fill="#658280"/>
<path d="M615.637 290.567H597.437V291.915H615.637V290.567Z" fill="#658280"/>
<path d="M528.016 451.757H465.249V307.451L528.016 292.098V451.757Z" fill="#658280"/>
<path d="M468.006 304.911H462.491V451.757H468.006V304.911Z" fill="#658280"/>
<path d="M483.698 300.773H478.183V451.757H483.698V300.773Z" fill="#658280"/>
<path d="M499.39 296.475H493.875V451.757H499.39V296.475Z" fill="#658280"/>
<path d="M515.081 292.973H509.566V451.757H515.081V292.973Z" fill="#658280"/>
<path d="M530.773 289.249H525.258V451.757H530.773V289.249Z" fill="#658280"/>
<path opacity="0.29" d="M476.754 317.234H469.434V328.386H476.754V317.234Z" fill="#658280"/>
<path opacity="0.29" d="M492.446 317.234H485.126V328.386H492.446V317.234Z" fill="#658280"/>
<path d="M508.138 317.234H500.818V328.386H508.138V317.234Z" fill="#658280"/>
<path opacity="0.29" d="M523.83 317.234H516.51V328.386H523.83V317.234Z" fill="#658280"/>
<path d="M476.754 336.653H469.434V347.805H476.754V336.653Z" fill="#658280"/>
<path d="M492.446 336.653H485.126V347.805H492.446V336.653Z" fill="#658280"/>
<path opacity="0.29" d="M508.138 336.653H500.818V347.805H508.138V336.653Z" fill="#658280"/>
<path opacity="0.29" d="M523.83 336.653H516.51V347.805H523.83V336.653Z" fill="#658280"/>
<path opacity="0.29" d="M476.754 356.072H469.434V367.224H476.754V356.072Z" fill="#658280"/>
<path opacity="0.29" d="M492.446 356.072H485.126V367.224H492.446V356.072Z" fill="#658280"/>
<path opacity="0.29" d="M508.138 356.072H500.818V367.224H508.138V356.072Z" fill="#658280"/>
<path d="M523.83 356.072H516.51V367.224H523.83V356.072Z" fill="#658280"/>
<path opacity="0.29" d="M476.754 375.491H469.434V386.643H476.754V375.491Z" fill="#658280"/>
<path d="M492.446 375.491H485.126V386.643H492.446V375.491Z" fill="#658280"/>
<path opacity="0.29" d="M508.138 375.491H500.818V386.643H508.138V375.491Z" fill="#658280"/>
<path opacity="0.29" d="M523.83 375.491H516.51V386.643H523.83V375.491Z" fill="#658280"/>
<path opacity="0.29" d="M476.754 394.909H469.434V406.061H476.754V394.909Z" fill="#658280"/>
<path opacity="0.29" d="M492.446 394.909H485.126V406.061H492.446V394.909Z" fill="#658280"/>
<path d="M508.138 394.909H500.818V406.061H508.138V394.909Z" fill="#658280"/>
<path opacity="0.29" d="M523.83 394.909H516.51V406.061H523.83V394.909Z" fill="#658280"/>
<path d="M476.754 414.328H469.434V425.48H476.754V414.328Z" fill="#658280"/>
<path d="M492.446 414.328H485.126V425.48H492.446V414.328Z" fill="#658280"/>
<path opacity="0.29" d="M508.138 414.328H500.818V425.48H508.138V414.328Z" fill="#658280"/>
<path opacity="0.29" d="M523.83 414.328H516.51V425.48H523.83V414.328Z" fill="#658280"/>
<path opacity="0.29" d="M476.754 433.746H469.434V444.898H476.754V433.746Z" fill="#658280"/>
<path d="M492.446 433.746H485.126V444.898H492.446V433.746Z" fill="#658280"/>
<path opacity="0.29" d="M508.138 433.746H500.818V444.898H508.138V433.746Z" fill="#658280"/>
<path d="M523.83 433.746H516.51V444.898H523.83V433.746Z" fill="#658280"/>
<path d="M286.197 314.364V315.862H284.705V320.132H310.968V451.757H267.87V326.999V320.132V315.862H266.306V314.364H286.197Z" fill="#658280"/>
<path d="M396.534 374.152H359.618V451.757H396.534V374.152Z" fill="#658280"/>
<path d="M228.729 356.362H198.721V451.757H228.729V356.362Z" fill="#658280"/>
<path d="M255.486 376.238H222.785V451.757H255.486V376.238Z" fill="#658280"/>
<path d="M222.785 352.533H209.517V363.949H222.785V352.533Z" fill="#658280"/>
<path d="M259.888 374.994H225.029V377.786H259.888V374.994Z" fill="#658280"/>
<path d="M288.637 408.629H251.974V451.757H288.637V408.629Z" fill="#658280"/>
<path d="M163.303 373.549H133.48V451.757H163.303V373.549Z" fill="#658280"/>
<path d="M146.834 412.523H107.6V451.757H146.834V412.523Z" fill="#658280"/>
<path d="M88.939 406.111H64.398V451.757H88.939V406.111Z" fill="#658280"/>
<path d="M142.178 437.459H84.175V451.757H142.178V437.459Z" fill="#658280"/>
<path d="M71.908 432.838H42.18V451.757H71.908V432.838Z" fill="#658280"/>
<path d="M209.517 422.892H163.303V451.757H209.517V422.892Z" fill="#658280"/>
<path d="M370.854 439.322H298.867V451.757H370.854V439.322Z" fill="#658280"/>
<path d="M498.485 439.322H426.498V451.757H498.485V439.322Z" fill="#658280"/>
<path d="M368.051 402.817H340.69L329.119 445.54H368.051V402.817Z" fill="#658280"/>
<path d="M381.459 340.654H380.697V388.048H381.459V340.654Z" fill="#658280"/>
<path d="M385.525 356.692H384.509V384.657H385.525V356.692Z" fill="#658280"/>
<path d="M392.905 361.648H379.062V375.491H392.905V361.648Z" fill="#658280"/>
<path d="M395.059 360.572H376.725V361.812H395.059V360.572Z" fill="#658280"/>
<path d="M434.549 411.728H389.82V451.756H434.549V411.728Z" fill="#658280"/>
<path d="M454.732 367.664H425.995V444.899H454.732V367.664Z" fill="#658280"/>
<path d="M584.139 382.184H538.227V451.757H584.139V382.184Z" fill="#658280"/>
<path d="M576.176 426.121H523.83V451.757H576.176V426.121Z" fill="#658280"/>
<path d="M615.638 442.581H581.598V451.757H615.638V442.581Z" fill="#658280"/>
<path d="M689.371 426.121H634.027V451.757H689.371V426.121Z" fill="#658280"/>
<path d="M656.076 451.757H724.943V359.002H656.076V451.757Z" fill="#658280"/>
<path d="M654.297 359.003H728.961V355.445H654.297V359.003Z" fill="#658280"/>
<path d="M691.628 364.593H721.893V345.788H691.628V364.593Z" fill="#658280"/>
<path d="M676.66 357.223H681.742V345.787H676.66V357.223Z" fill="#658280"/>
<path d="M665.986 357.223H671.577V345.787H665.986V357.223Z" fill="#658280"/>
<path d="M772.285 451.757H826.798V316.293H772.285V451.757Z" fill="#658280"/>
<path d="M770.736 317.792H828.346V313.963H770.736V317.792Z" fill="#658280"/>
<path d="M774.117 327.261H824.966V309.062H774.117V327.261Z" fill="#658280"/>
<path d="M800.938 321.501H821.073V301.617H800.938V321.501Z" fill="#658280"/>
<path d="M809.421 307.221H821.073V296.753H812.715L809.421 307.221Z" fill="#658280"/>
<path d="M815.246 311.38H816.376V288.065H815.246V311.38Z" fill="#658280"/>
<path d="M814.797 286.857C814.797 287.524 815.251 288.065 815.811 288.065C816.371 288.065 816.826 287.524 816.826 286.857C816.826 286.189 816.372 285.648 815.811 285.648C815.25 285.648 814.797 286.189 814.797 286.857Z" fill="#658280"/>
<path d="M843.731 395.834H819.335V451.757H843.731V395.834Z" fill="#658280"/>
<path d="M777.666 368.569H749.844V451.757H777.666V368.569Z" fill="#658280"/>
<path d="M763.767 451.757H724.576V407.264L757.654 421.92L763.767 451.757Z" fill="#658280"/>
<path d="M895.572 427.593H835.72V451.757H895.572V427.593Z" fill="#658280"/>
<path d="M908.23 355.296H873.463V451.757H908.23V355.296Z" fill="#658280"/>
<path d="M957.699 433.746H900.098V451.756H957.699V433.746Z" fill="#658280"/>
<path d="M909.822 353.53H871.684V356.692H909.822V353.53Z" fill="#658280"/>
<path d="M903.57 339.919H902.808V359.358H903.57V339.919Z" fill="#658280"/>
<path d="M898.488 342.38H897.726V357.974H898.488V342.38Z" fill="#658280"/>
<path d="M921.105 391.635H905.604V435.83H927.713L921.105 391.635Z" fill="#658280"/>
<g opacity="0.52">
<path d="M204.088 361.192H201.817V363.463H204.088V361.192Z" fill="white"/>
<path d="M208.652 361.192H206.381V363.463H208.652V361.192Z" fill="white"/>
<path d="M204.088 366.528H201.817V368.799H204.088V366.528Z" fill="white"/>
<path d="M208.652 366.528H206.381V368.799H208.652V366.528Z" fill="white"/>
<path d="M204.088 371.687H201.817V373.958H204.088V371.687Z" fill="white"/>
<path d="M213.724 361.192H211.453V363.463H213.724V361.192Z" fill="white"/>
</g>
<path opacity="0.5" d="M369.6 292.973H368.051V301.548H369.6V292.973Z" fill="white"/>
<path opacity="0.5" d="M374.939 292.973H373.39V301.548H374.939V292.973Z" fill="white"/>
<path opacity="0.5" d="M380.278 292.973H378.729V301.548H380.278V292.973Z" fill="white"/>
<path opacity="0.5" d="M385.617 292.973H384.068V301.548H385.617V292.973Z" fill="white"/>
<path opacity="0.5" d="M390.956 292.973H389.407V301.548H390.956V292.973Z" fill="white"/>
<path opacity="0.5" d="M396.295 292.973H394.746V301.548H396.295V292.973Z" fill="white"/>
<path opacity="0.5" d="M401.634 292.973H400.085V301.548H401.634V292.973Z" fill="white"/>
<path opacity="0.5" d="M406.972 292.973H405.423V301.548H406.972V292.973Z" fill="white"/>
<path opacity="0.5" d="M412.311 292.973H410.762V301.548H412.311V292.973Z" fill="white"/>
<path opacity="0.5" d="M417.65 292.973H416.101V301.548H417.65V292.973Z" fill="white"/>
<path opacity="0.5" d="M422.989 292.973H421.44V301.548H422.989V292.973Z" fill="white"/>
<path opacity="0.5" d="M369.6 304.911H368.051V313.486H369.6V304.911Z" fill="white"/>
<path opacity="0.5" d="M374.939 304.911H373.39V313.486H374.939V304.911Z" fill="white"/>
<path opacity="0.5" d="M380.278 304.911H378.729V313.486H380.278V304.911Z" fill="white"/>
<path opacity="0.5" d="M385.617 304.911H384.068V313.486H385.617V304.911Z" fill="white"/>
<path opacity="0.5" d="M390.956 304.911H389.407V313.486H390.956V304.911Z" fill="white"/>
<path opacity="0.5" d="M396.295 304.911H394.746V313.486H396.295V304.911Z" fill="white"/>
<path opacity="0.5" d="M401.634 304.911H400.085V313.486H401.634V304.911Z" fill="white"/>
<path opacity="0.5" d="M406.972 304.911H405.423V313.486H406.972V304.911Z" fill="white"/>
<path opacity="0.5" d="M412.311 304.911H410.762V313.486H412.311V304.911Z" fill="white"/>
<path opacity="0.5" d="M417.65 304.911H416.101V313.486H417.65V304.911Z" fill="white"/>
<path opacity="0.5" d="M422.989 304.911H421.44V313.486H422.989V304.911Z" fill="white"/>
<path opacity="0.5" d="M369.6 316.849H368.051V325.424H369.6V316.849Z" fill="white"/>
<path opacity="0.5" d="M374.939 316.849H373.39V325.424H374.939V316.849Z" fill="white"/>
<path opacity="0.5" d="M380.278 316.849H378.729V325.424H380.278V316.849Z" fill="white"/>
<path opacity="0.5" d="M385.617 316.849H384.068V325.424H385.617V316.849Z" fill="white"/>
<path opacity="0.5" d="M390.956 316.849H389.407V325.424H390.956V316.849Z" fill="white"/>
<path opacity="0.5" d="M396.295 316.849H394.746V325.424H396.295V316.849Z" fill="white"/>
<path opacity="0.5" d="M401.634 316.849H400.085V325.424H401.634V316.849Z" fill="white"/>
<path opacity="0.5" d="M406.972 316.849H405.423V325.424H406.972V316.849Z" fill="white"/>
<path opacity="0.5" d="M412.311 316.849H410.762V325.424H412.311V316.849Z" fill="white"/>
<path opacity="0.5" d="M417.65 316.849H416.101V325.424H417.65V316.849Z" fill="white"/>
<path opacity="0.5" d="M422.989 316.849H421.44V325.424H422.989V316.849Z" fill="white"/>
<path opacity="0.5" d="M385.617 328.787H384.068V337.362H385.617V328.787Z" fill="white"/>
<path opacity="0.5" d="M390.956 328.787H389.407V337.362H390.956V328.787Z" fill="white"/>
<path opacity="0.5" d="M396.295 328.787H394.746V337.362H396.295V328.787Z" fill="white"/>
<path opacity="0.5" d="M401.634 328.787H400.085V337.362H401.634V328.787Z" fill="white"/>
<path opacity="0.5" d="M406.972 328.787H405.423V337.362H406.972V328.787Z" fill="white"/>
<path opacity="0.5" d="M412.311 328.787H410.762V337.362H412.311V328.787Z" fill="white"/>
<path opacity="0.5" d="M417.65 328.787H416.101V337.362H417.65V328.787Z" fill="white"/>
<path opacity="0.5" d="M422.989 328.787H421.44V337.362H422.989V328.787Z" fill="white"/>
<path opacity="0.5" d="M390.956 341.387H389.407V349.962H390.956V341.387Z" fill="white"/>
<path opacity="0.5" d="M396.295 341.387H394.746V349.962H396.295V341.387Z" fill="white"/>
<path opacity="0.5" d="M401.634 341.387H400.085V349.962H401.634V341.387Z" fill="white"/>
<path opacity="0.5" d="M406.972 341.387H405.423V349.962H406.972V341.387Z" fill="white"/>
<path opacity="0.5" d="M412.311 341.387H410.762V349.962H412.311V341.387Z" fill="white"/>
<path opacity="0.5" d="M417.65 341.387H416.101V349.962H417.65V341.387Z" fill="white"/>
<path opacity="0.5" d="M422.989 341.387H421.44V349.962H422.989V341.387Z" fill="white"/>
<path opacity="0.33" d="M474.924 314.256H471.264V323.539H474.924V314.256Z" fill="white"/>
<path opacity="0.33" d="M474.924 332.012H471.264V341.295H474.924V332.012Z" fill="white"/>
<path opacity="0.33" d="M474.924 349.767H471.264V359.05H474.924V349.767Z" fill="white"/>
<path opacity="0.33" d="M474.924 367.523H471.264V376.806H474.924V367.523Z" fill="white"/>
<path opacity="0.33" d="M474.924 384.263H471.264V393.546H474.924V384.263Z" fill="white"/>
<path opacity="0.33" d="M474.924 402.018H471.264V411.301H474.924V402.018Z" fill="white"/>
<path opacity="0.33" d="M490.616 314.256H486.956V323.539H490.616V314.256Z" fill="white"/>
<path opacity="0.33" d="M490.616 332.012H486.956V341.295H490.616V332.012Z" fill="white"/>
<path opacity="0.33" d="M490.616 349.767H486.956V359.05H490.616V349.767Z" fill="white"/>
<path opacity="0.33" d="M490.616 367.523H486.956V376.806H490.616V367.523Z" fill="white"/>
<path opacity="0.33" d="M490.616 384.263H486.956V393.546H490.616V384.263Z" fill="white"/>
<path opacity="0.33" d="M490.616 402.018H486.956V411.301H490.616V402.018Z" fill="white"/>
<path opacity="0.33" d="M506.308 314.256H502.648V323.539H506.308V314.256Z" fill="white"/>
<path opacity="0.33" d="M506.308 332.012H502.648V341.295H506.308V332.012Z" fill="white"/>
<path opacity="0.33" d="M506.308 349.767H502.648V359.05H506.308V349.767Z" fill="white"/>
<path opacity="0.33" d="M506.308 367.523H502.648V376.806H506.308V367.523Z" fill="white"/>
<path opacity="0.33" d="M506.308 384.263H502.648V393.546H506.308V384.263Z" fill="white"/>
<path opacity="0.33" d="M506.308 402.018H502.648V411.301H506.308V402.018Z" fill="white"/>
<path opacity="0.33" d="M522 314.256H518.34V323.539H522V314.256Z" fill="white"/>
<path opacity="0.33" d="M522 332.012H518.34V341.295H522V332.012Z" fill="white"/>
<path opacity="0.33" d="M522 349.767H518.34V359.05H522V349.767Z" fill="white"/>
<path opacity="0.33" d="M522 367.523H518.34V376.806H522V367.523Z" fill="white"/>
<path opacity="0.33" d="M522 384.263H518.34V393.546H522V384.263Z" fill="white"/>
<path opacity="0.33" d="M522 402.018H518.34V411.301H522V402.018Z" fill="white"/>
<path opacity="0.5" d="M415.357 184.805H412.312V192.929H415.357V184.805Z" fill="white"/>
<path opacity="0.5" d="M422.871 184.805H419.826V192.929H422.871V184.805Z" fill="white"/>
<path opacity="0.5" d="M430.384 184.805H427.339V192.929H430.384V184.805Z" fill="white"/>
<path opacity="0.5" d="M437.898 184.805H434.853V192.929H437.898V184.805Z" fill="white"/>
<path opacity="0.5" d="M415.357 198.335H412.312V206.459H415.357V198.335Z" fill="white"/>
<path opacity="0.5" d="M422.871 198.335H419.826V206.459H422.871V198.335Z" fill="white"/>
<path opacity="0.5" d="M430.384 198.335H427.339V206.459H430.384V198.335Z" fill="white"/>
<path opacity="0.5" d="M437.898 198.335H434.853V206.459H437.898V198.335Z" fill="white"/>
<path opacity="0.5" d="M415.357 211.865H412.312V219.989H415.357V211.865Z" fill="white"/>
<path opacity="0.5" d="M422.871 211.865H419.826V219.989H422.871V211.865Z" fill="white"/>
<path opacity="0.5" d="M446.422 184.805H443.377V192.929H446.422V184.805Z" fill="white"/>
<path opacity="0.4" d="M211.453 267.107H209.517V274.554H211.453V267.107Z" fill="white"/>
<path opacity="0.4" d="M218.287 267.107H216.351V274.554H218.287V267.107Z" fill="white"/>
<path opacity="0.4" d="M226.28 267.107H224.344V274.554H226.28V267.107Z" fill="white"/>
<path opacity="0.4" d="M233.113 267.107H231.177V274.554H233.113V267.107Z" fill="white"/>
<path opacity="0.4" d="M196.272 267.107H194.336V274.554H196.272V267.107Z" fill="white"/>
<path opacity="0.4" d="M203.105 267.107H201.169V274.554H203.105V267.107Z" fill="white"/>
<path opacity="0.4" d="M211.453 280.039H209.517V287.486H211.453V280.039Z" fill="white"/>
<path opacity="0.4" d="M218.287 280.039H216.351V287.486H218.287V280.039Z" fill="white"/>
<path opacity="0.4" d="M226.28 280.039H224.344V287.486H226.28V280.039Z" fill="white"/>
<path opacity="0.4" d="M233.113 280.039H231.177V287.486H233.113V280.039Z" fill="white"/>
<path opacity="0.4" d="M196.272 280.039H194.336V287.486H196.272V280.039Z" fill="white"/>
<path opacity="0.4" d="M203.105 280.039H201.169V287.486H203.105V280.039Z" fill="white"/>
<path opacity="0.4" d="M211.453 292.97H209.517V300.417H211.453V292.97Z" fill="white"/>
<path opacity="0.4" d="M218.287 292.97H216.351V300.417H218.287V292.97Z" fill="white"/>
<path opacity="0.4" d="M226.28 292.97H224.344V300.417H226.28V292.97Z" fill="white"/>
<path opacity="0.4" d="M233.113 292.97H231.177V300.417H233.113V292.97Z" fill="white"/>
<path opacity="0.4" d="M196.272 292.97H194.336V300.417H196.272V292.97Z" fill="white"/>
<path opacity="0.4" d="M203.105 292.97H201.169V300.417H203.105V292.97Z" fill="white"/>
<path opacity="0.5" d="M573.916 324.18H570.916V335.729H573.916V324.18Z" fill="white"/>
<path opacity="0.5" d="M583.097 324.18H580.097V335.729H583.097V324.18Z" fill="white"/>
<path opacity="0.5" d="M591.739 324.18H588.739V335.729H591.739V324.18Z" fill="white"/>
<path opacity="0.33" d="M779.944 326.58H777.666V333.075H779.944V326.58Z" fill="white"/>
<path opacity="0.33" d="M787.083 326.58H784.805V333.075H787.083V326.58Z" fill="white"/>
<path opacity="0.33" d="M779.944 326.58H777.666V333.075H779.944V326.58Z" fill="white"/>
<path opacity="0.33" d="M787.083 326.58H784.805V333.075H787.083V326.58Z" fill="white"/>
<path opacity="0.33" d="M793.829 326.58H791.551V333.075H793.829V326.58Z" fill="white"/>
<path opacity="0.33" d="M800.969 326.58H798.691V333.075H800.969V326.58Z" fill="white"/>
<path opacity="0.33" d="M779.944 338.227H777.666V344.722H779.944V338.227Z" fill="white"/>
<path opacity="0.33" d="M787.083 338.227H784.805V344.722H787.083V338.227Z" fill="white"/>
<path opacity="0.33" d="M779.944 338.227H777.666V344.722H779.944V338.227Z" fill="white"/>
<path opacity="0.33" d="M787.083 338.227H784.805V344.722H787.083V338.227Z" fill="white"/>
<path opacity="0.33" d="M793.829 338.227H791.551V344.722H793.829V338.227Z" fill="white"/>
<path opacity="0.33" d="M800.969 338.227H798.691V344.722H800.969V338.227Z" fill="white"/>
<path opacity="0.33" d="M779.944 350.623H777.666V357.118H779.944V350.623Z" fill="white"/>
<path opacity="0.33" d="M787.083 350.623H784.805V357.118H787.083V350.623Z" fill="white"/>
<path opacity="0.33" d="M779.944 350.623H777.666V357.118H779.944V350.623Z" fill="white"/>
<path opacity="0.33" d="M787.083 350.623H784.805V357.118H787.083V350.623Z" fill="white"/>
<path opacity="0.33" d="M793.829 350.623H791.551V357.118H793.829V350.623Z" fill="white"/>
<path opacity="0.33" d="M800.969 350.623H798.691V357.118H800.969V350.623Z" fill="white"/>
<path opacity="0.33" d="M808.772 326.58H806.494V333.075H808.772V326.58Z" fill="white"/>
<path opacity="0.33" d="M808.772 338.227H806.494V344.722H808.772V338.227Z" fill="white"/>
<path opacity="0.33" d="M815.912 326.58H813.634V333.075H815.912V326.58Z" fill="white"/>
<path opacity="0.33" d="M602.239 307.306H599.791V317.432H602.239V307.306Z" fill="white"/>
<path opacity="0.33" d="M614.414 307.306H611.966V317.432H614.414V307.306Z" fill="white"/>
<path opacity="0.33" d="M626.588 307.306H624.14V317.432H626.588V307.306Z" fill="white"/>
<path opacity="0.33" d="M638.763 307.306H636.315V317.432H638.763V307.306Z" fill="white"/>
<path opacity="0.33" d="M602.239 328.147H599.791V338.273H602.239V328.147Z" fill="white"/>
<path opacity="0.33" d="M614.414 328.147H611.966V338.273H614.414V328.147Z" fill="white"/>
<path opacity="0.33" d="M626.588 328.147H624.14V338.273H626.588V328.147Z" fill="white"/>
<path opacity="0.33" d="M638.763 328.147H636.315V338.273H638.763V328.147Z" fill="white"/>
<path opacity="0.33" d="M602.239 349.506H599.791V359.632H602.239V349.506Z" fill="white"/>
<path opacity="0.33" d="M614.414 349.506H611.966V359.632H614.414V349.506Z" fill="white"/>
<path opacity="0.33" d="M626.588 349.506H624.14V359.632H626.588V349.506Z" fill="white"/>
<path opacity="0.33" d="M638.763 349.506H636.315V359.632H638.763V349.506Z" fill="white"/>
<path opacity="0.33" d="M602.239 370.866H599.791V380.992H602.239V370.866Z" fill="white"/>
<path opacity="0.33" d="M614.414 370.866H611.966V380.992H614.414V370.866Z" fill="white"/>
<path opacity="0.33" d="M626.588 370.866H624.14V380.992H626.588V370.866Z" fill="white"/>
<path opacity="0.33" d="M638.763 370.866H636.315V380.992H638.763V370.866Z" fill="white"/>
<path opacity="0.33" d="M602.239 390.267H599.791V400.393H602.239V390.267Z" fill="white"/>
<path opacity="0.33" d="M614.414 390.267H611.966V400.393H614.414V390.267Z" fill="white"/>
<path opacity="0.33" d="M626.588 390.267H624.14V400.393H626.588V390.267Z" fill="white"/>
<path opacity="0.33" d="M602.239 411.907H599.791V422.033H602.239V411.907Z" fill="white"/>
<path opacity="0.33" d="M614.414 411.907H611.966V422.033H614.414V411.907Z" fill="white"/>
<path opacity="0.33" d="M626.588 411.907H624.14V422.033H626.588V411.907Z" fill="white"/>
<path opacity="0.33" d="M638.763 390.267H636.315V400.393H638.763V390.267Z" fill="white"/>
<path opacity="0.33" d="M879.042 360.84H876.541V366.652H879.042V360.84Z" fill="white"/>
<path opacity="0.33" d="M879.042 370.223H876.541V376.035H879.042V370.223Z" fill="white"/>
<path opacity="0.33" d="M885.458 360.84H882.957V366.652H885.458V360.84Z" fill="white"/>
</g>
<defs>
<clipPath id="clip0_11_697">
<rect width="1000" height="452" fill="white"/>
</clipPath>
</defs>
</svg>
